<mxfile host="app.diagrams.net" agent="Mozilla/5.0 (Windows NT 10.0; Win64; x64) AppleWebKit/537.36 (KHTML, like Gecko) Chrome/138.0.0.0 Safari/537.36 Edg/138.0.0.0" version="28.0.3">
  <diagram name="第 1 页" id="XpfvcpQq-auQJI1GPYvC">
    <mxGraphModel dx="2181" dy="1231" grid="1" gridSize="10" guides="1" tooltips="1" connect="1" arrows="1" fold="1" page="1" pageScale="1" pageWidth="827" pageHeight="1169" math="0" shadow="0">
      <root>
        <mxCell id="0" />
        <mxCell id="1" parent="0" />
        <mxCell id="RzdLiPNiWbt_Bb7sC5EA-1" value="" style="rounded=0;whiteSpace=wrap;html=1;" vertex="1" parent="1">
          <mxGeometry x="200" y="200" width="400" height="170" as="geometry" />
        </mxCell>
        <mxCell id="RzdLiPNiWbt_Bb7sC5EA-2" value="" style="endArrow=none;dashed=1;html=1;rounded=0;" edge="1" parent="1">
          <mxGeometry width="50" height="50" relative="1" as="geometry">
            <mxPoint x="400" y="390" as="sourcePoint" />
            <mxPoint x="400" y="180" as="targetPoint" />
          </mxGeometry>
        </mxCell>
        <mxCell id="RzdLiPNiWbt_Bb7sC5EA-9" value="" style="edgeStyle=orthogonalEdgeStyle;rounded=0;orthogonalLoop=1;jettySize=auto;html=1;" edge="1" parent="1" source="RzdLiPNiWbt_Bb7sC5EA-3" target="RzdLiPNiWbt_Bb7sC5EA-5">
          <mxGeometry relative="1" as="geometry" />
        </mxCell>
        <mxCell id="RzdLiPNiWbt_Bb7sC5EA-3" value="Constraint Extractor" style="rounded=1;whiteSpace=wrap;html=1;fontStyle=1" vertex="1" parent="1">
          <mxGeometry x="230" y="290" width="140" height="40" as="geometry" />
        </mxCell>
        <mxCell id="RzdLiPNiWbt_Bb7sC5EA-8" value="" style="edgeStyle=orthogonalEdgeStyle;rounded=0;orthogonalLoop=1;jettySize=auto;html=1;" edge="1" parent="1" source="RzdLiPNiWbt_Bb7sC5EA-4" target="RzdLiPNiWbt_Bb7sC5EA-3">
          <mxGeometry relative="1" as="geometry" />
        </mxCell>
        <mxCell id="RzdLiPNiWbt_Bb7sC5EA-4" value="Pysvf" style="rounded=1;whiteSpace=wrap;html=1;fontStyle=1" vertex="1" parent="1">
          <mxGeometry x="230" y="220" width="140" height="40" as="geometry" />
        </mxCell>
        <mxCell id="RzdLiPNiWbt_Bb7sC5EA-5" value="Fuzzer" style="rounded=1;whiteSpace=wrap;html=1;fontStyle=1" vertex="1" parent="1">
          <mxGeometry x="430" y="290" width="140" height="40" as="geometry" />
        </mxCell>
        <mxCell id="RzdLiPNiWbt_Bb7sC5EA-14" style="edgeStyle=orthogonalEdgeStyle;rounded=0;orthogonalLoop=1;jettySize=auto;html=1;exitX=0.5;exitY=1;exitDx=0;exitDy=0;entryX=0.75;entryY=0;entryDx=0;entryDy=0;" edge="1" parent="1" source="RzdLiPNiWbt_Bb7sC5EA-6" target="RzdLiPNiWbt_Bb7sC5EA-5">
          <mxGeometry relative="1" as="geometry" />
        </mxCell>
        <mxCell id="RzdLiPNiWbt_Bb7sC5EA-6" value="Pythia" style="rounded=1;whiteSpace=wrap;html=1;fontStyle=1" vertex="1" parent="1">
          <mxGeometry x="510" y="220" width="60" height="40" as="geometry" />
        </mxCell>
        <mxCell id="RzdLiPNiWbt_Bb7sC5EA-13" style="edgeStyle=orthogonalEdgeStyle;rounded=0;orthogonalLoop=1;jettySize=auto;html=1;exitX=0.5;exitY=1;exitDx=0;exitDy=0;entryX=0.25;entryY=0;entryDx=0;entryDy=0;" edge="1" parent="1" source="RzdLiPNiWbt_Bb7sC5EA-7" target="RzdLiPNiWbt_Bb7sC5EA-5">
          <mxGeometry relative="1" as="geometry" />
        </mxCell>
        <mxCell id="RzdLiPNiWbt_Bb7sC5EA-7" value="AFLGO" style="rounded=1;whiteSpace=wrap;html=1;fontStyle=1" vertex="1" parent="1">
          <mxGeometry x="430" y="220" width="60" height="40" as="geometry" />
        </mxCell>
        <mxCell id="RzdLiPNiWbt_Bb7sC5EA-15" value="Static Part" style="text;html=1;align=center;verticalAlign=middle;whiteSpace=wrap;rounded=0;fontStyle=1" vertex="1" parent="1">
          <mxGeometry x="200" y="339" width="80" height="30" as="geometry" />
        </mxCell>
        <mxCell id="RzdLiPNiWbt_Bb7sC5EA-16" value="Dynamic Part" style="text;html=1;align=center;verticalAlign=middle;whiteSpace=wrap;rounded=0;fontStyle=1" vertex="1" parent="1">
          <mxGeometry x="510" y="339" width="80" height="30" as="geometry" />
        </mxCell>
      </root>
    </mxGraphModel>
  </diagram>
</mxfile>
